<svg xmlns="http://www.w3.org/2000/svg" version="1.1" xmlns:xlink="http://www.w3.org/1999/xlink" xmlns:svgjs="http://svgjs.com/svgjs" width="1440" height="560" preserveAspectRatio="none" viewBox="0 0 1440 560"><g mask="url(&quot;#SvgjsMask1209&quot;)" fill="none"><rect width="1440" height="560" x="0" y="0" fill="url(#SvgjsLinearGradient1210)"></rect><path d="M1099.372955458729 118.66013164994722L1209.901871412604 80.60197382005543 1171.843713582712-29.926942133819594 1061.3147976288371 8.131215696072204z" fill="rgba(28, 83, 142, 0.4)" class="triangle-float1"></path><path d="M871.211,465.484C916.334,466.009,961.899,449.037,984.738,410.117C1007.819,370.784,1002.457,321.435,978.521,282.617C955.77,245.722,914.522,224.268,871.211,226.008C830.673,227.637,798.756,255.9,777.864,290.678C756.173,326.786,742.325,370.373,762.167,407.529C782.949,446.446,827.096,464.971,871.211,465.484" fill="rgba(28, 83, 142, 0.4)" class="triangle-float3"></path><path d="M590.8149425948013 475.36210182567936L695.04253091003 449.37524538988214 669.0556744742328 345.14765707465347 564.8280861590041 371.1345135104507z" fill="rgba(28, 83, 142, 0.4)" class="triangle-float2"></path><path d="M193.809,435.104C215.233,436.888,238.697,431.173,249.647,412.673C260.745,393.923,254.634,370.453,242.964,352.054C232.194,335.074,213.904,323.907,193.809,324.639C174.836,325.331,159.284,338.599,150.49,355.425C142.357,370.987,143.657,389.12,152.044,404.547C160.875,420.79,175.385,433.57,193.809,435.104" fill="rgba(28, 83, 142, 0.4)" class="triangle-float1"></path><path d="M756.93 23.27 a116.73 116.73 0 1 0 233.46 0 a116.73 116.73 0 1 0 -233.46 0z" fill="rgba(28, 83, 142, 0.4)" class="triangle-float1"></path><path d="M1356.8936675936964 154.35317162798196L1234.8861460126768 242.99682479312446 1323.5297991778193 365.0043463741439 1445.5373207588389 276.3606932090014z" fill="rgba(28, 83, 142, 0.4)" class="triangle-float1"></path><path d="M-39.581782597610854 442.44419433761016L27.098406519133277 579.4901755359355 103.5145948852735 470.35654843800233z" fill="rgba(28, 83, 142, 0.4)" class="triangle-float2"></path><path d="M1418.581,525.259C1440.149,523.448,1459.933,514.357,1471.756,496.228C1484.913,476.053,1491.626,451.1,1481.061,429.455C1469.248,405.254,1445.489,388.365,1418.581,387.288C1389.784,386.135,1361.565,399.334,1346.792,424.08C1331.665,449.418,1330.232,482.61,1347.308,506.677C1362.536,528.139,1392.358,527.461,1418.581,525.259" fill="rgba(28, 83, 142, 0.4)" class="triangle-float3"></path><path d="M1202.227,348.801C1230.326,348.633,1257.53,334.208,1270.116,309.084C1281.694,285.972,1272.139,259.315,1257.846,237.776C1245.268,218.822,1224.925,208.293,1202.227,206.78C1175.955,205.028,1146.77,207.537,1132.083,229.39C1116.037,253.265,1118.349,285.1,1132.919,309.903C1147.3,334.386,1173.834,348.97,1202.227,348.801" fill="rgba(28, 83, 142, 0.4)" class="triangle-float3"></path><path d="M-20.8 261.23 a114.32 114.32 0 1 0 228.64 0 a114.32 114.32 0 1 0 -228.64 0z" fill="rgba(28, 83, 142, 0.4)" class="triangle-float3"></path></g><defs><mask id="SvgjsMask1209"><rect width="1440" height="560" fill="#ffffff"></rect></mask><linearGradient x1="15.28%" y1="-39.29%" x2="84.72%" y2="139.29%" gradientUnits="userSpaceOnUse" id="SvgjsLinearGradient1210"><stop stop-color="rgba(9, 18, 148, 1)" offset="0.67"></stop><stop stop-color="rgba(6, 42, 88, 1)" offset="0.76"></stop></linearGradient><style>
            @keyframes float1 {
                0%{transform: translate(0, 0)}
                50%{transform: translate(-10px, 0)}
                100%{transform: translate(0, 0)}
            }

            .triangle-float1 {
                animation: float1 5s infinite;
            }

            @keyframes float2 {
                0%{transform: translate(0, 0)}
                50%{transform: translate(-5px, -5px)}
                100%{transform: translate(0, 0)}
            }

            .triangle-float2 {
                animation: float2 4s infinite;
            }

            @keyframes float3 {
                0%{transform: translate(0, 0)}
                50%{transform: translate(0, -10px)}
                100%{transform: translate(0, 0)}
            }

            .triangle-float3 {
                animation: float3 6s infinite;
            }
        </style></defs></svg>